PathFileType	4	(X/Y/Z)	C:\Users\Basilio\Documents\Thesis Gigler\squatting_fais\c3dfiles\044\SLS_front_pre3\markers_experimental.trc
DataRate	CameraRate	NumFrames	NumMarkers	Units	OrigDataRate	OrigDataStartFrame	OrigNumFrames
200.000000	200.000000	4	60	mm	200.000000	516	1376
Frame#	Time	FHD			LBHD			RBHD			C7			T10			CLAV			LSHO			LUUPA			LMUPA			LDUPA			LLEP			LMEP			LUL			LRFIN			RSHO			RUPA1			RMUPA			RDUPA			RLEP			RMEP			RUL			RUFIN			LASI			RASI			USACR			LSACR			RSACR			LTHI1			LTHI2			LTHI3			LTHI4			LLFC			LMFC			LTIB1			LTIB2			LTIB3			LTIB4			LLMAL			LMMAL			LHEE			LMT1			LMT2			LMT5			RTHI			RTHI2			RTHI3			RTHI4			RLFC			RMFC			RTIB1			RTIB2			RTIB3			RTIB4			RLMAL			RHEE			RMT1			RMT2			RMT5			LRAD			RMMAL			
		X1	Y1	Z1	X2	Y2	Z2	X3	Y3	Z3	X4	Y4	Z4	X5	Y5	Z5	X6	Y6	Z6	X7	Y7	Z7	X8	Y8	Z8	X9	Y9	Z9	X10	Y10	Z10	X11	Y11	Z11	X12	Y12	Z12	X13	Y13	Z13	X14	Y14	Z14	X15	Y15	Z15	X16	Y16	Z16	X17	Y17	Z17	X18	Y18	Z18	X19	Y19	Z19	X20	Y20	Z20	X21	Y21	Z21	X22	Y22	Z22	X23	Y23	Z23	X24	Y24	Z24	X25	Y25	Z25	X26	Y26	Z26	X27	Y27	Z27	X28	Y28	Z28	X29	Y29	Z29	X30	Y30	Z30	X31	Y31	Z31	X32	Y32	Z32	X33	Y33	Z33	X34	Y34	Z34	X35	Y35	Z35	X36	Y36	Z36	X37	Y37	Z37	X38	Y38	Z38	X39	Y39	Z39	X40	Y40	Z40	X41	Y41	Z41	X42	Y42	Z42	X43	Y43	Z43	X44	Y44	Z44	X45	Y45	Z45	X46	Y46	Z46	X47	Y47	Z47	X48	Y48	Z48	X49	Y49	Z49	X50	Y50	Z50	X51	Y51	Z51	X52	Y52	Z52	X53	Y53	Z53	X54	Y54	Z54	X55	Y55	Z55	X56	Y56	Z56	X57	Y57	Z57	X58	Y58	Z58	X59	Y59	Z59	X60	Y60	Z60	

517	2.58	-193.6126098632813	1695.788208007813	-1055.86328125	-328.5523681640626	1660.661010742188	-1129.484252929688	-368.9878234863282	1650.663452148438	-968.304626464844	-396.9858703613282	1483.765991210938	-1049.909545898438	-455.6082153320314	1190.894653320313	-1014.465515136719	-263.0348815917969	1430.156005859375	-1045.411254882813	-299.2973937988282	1484.5166015625	-1193.086669921875	-135.0335540771485	1447.944946289063	-1287.989501953125	-107.5089797973633	1459.284057617188	-1246.76416015625	-65.87841796875001	1440.080688476563	-1288.682861328125	-8.022103309631349	1436.92822265625	-1276.447387695313	-22.13906288146973	1360.254028320313	-1259.346069335938	241.8452758789063	1438.578735351563	-1149.430786132813	250.5025177001954	1457.488159179688	-1048.840454101563	-310.2749633789063	1491.065551757813	-891.4785766601565	-157.145980834961	1459.50341796875	-791.3904418945315	-127.2420959472657	1471.654296875	-830.6370239257815	-87.86927032470705	1454.029418945313	-789.6860351562502	-26.89396476745606	1451.936401367188	-799.8828735351565	-35.0443458557129	1372.537963867188	-810.7344970703127	229.6248779296876	1448.651977539063	-915.8438720703127	245.8552856445313	1431.053955078125	-1028.833251953125	-315.5541076660157	969.5190429687502	-1089.792846679688	-318.4126892089844	974.710388183594	-876.841979980469	-480.4745178222657	1036.029541015625	-984.750915527344	-488.7282104492189	1002.205871582031	-1008.524291992188	-491.498016357422	1011.33349609375	-952.5841064453127	-325.0881347656251	740.8717651367189	-1160.289184570313	-257.7586364746094	689.8397827148439	-1160.38330078125	-216.619369506836	712.9346313476564	-1152.313110351563	-254.9460449218751	630.7727661132814	-1144.234008789063	-175.6835632324219	501.7871704101564	-1123.26220703125	-169.8450012207032	506.9305419921876	-1002.092590332031	-196.4230499267579	337.4181823730469	-1028.598022460938	-234.6668395996094	292.7125244140626	-1095.69189453125	-206.7185974121094	286.3478088378907	-1056.315551757813	-248.6739501953126	222.0540466308594	-1019.389465332031	-335.5600585937501	127.5121841430664	-1059.083374023438	-315.7617187500001	138.5487213134766	-973.4668579101565	-407.5620422363282	111.6122207641602	-1007.523315429688	-201.6479034423829	60.68152236938478	-984.7435302734377	-200.3318634033204	62.53480911254884	-1031.195434570313	-237.8975982666016	50.29843139648439	-1077.786499023438	-270.5993041992188	739.1116333007814	-787.5579223632815	-204.2071075439454	725.2761230468751	-794.0716552734377	-182.5416412353516	747.5113525390626	-806.5609130859377	-173.8338012695313	647.4478759765626	-806.781921386719	-116.5581359863282	556.2757568359376	-813.697937011719	-126.7236404418946	542.9405517578126	-934.093444824219	-36.01240921020509	447.6746520996095	-841.327331542969	-81.89659118652345	359.7700195312501	-791.5736083984377	-41.71844482421876	364.8894653320313	-811.530944824219	-18.4568099975586	318.6101684570313	-836.9108886718752	-36.31635284423829	152.2149658203125	-815.6455688476565	-75.76120758056642	90.09957885742189	-856.8187255859377	120.5505981445313	163.6052551269532	-890.902526855469	128.6034698486328	165.2642974853516	-854.7283325195315	105.3273391723633	134.1360931396485	-799.9676513671877	225.8253173828126	1391.174438476563	-1100.118530273438	-23.44225692749024	164.0640411376953	-900.0231933593752	
518	2.585	-193.5846710205079	1694.494262695313	-1055.857788085938	-328.6880493164063	1659.042846679688	-1129.494995117188	-368.7325744628907	1649.260986328125	-968.3948364257815	-396.4440307617189	1482.1015625	-1049.726928710938	-456.2083435058595	1189.723999023438	-1014.321105957031	-262.9900207519532	1428.574462890625	-1045.44677734375	-298.9501342773438	1483.431396484375	-1193.119018554688	-135.1700439453125	1446.451293945313	-1287.967407226563	-107.5234375	1457.981079101563	-1246.760986328125	-65.97640991210939	1439.038208007813	-1288.607666015625	-8.05537796020508	1435.587524414063	-1276.441650390625	-21.95541000366211	1359.441040039063	-1259.574096679688	241.7071990966797	1437.84326171875	-1149.407836914063	250.6616210937501	1455.584106445313	-1048.45263671875	-309.9704589843751	1489.580200195313	-891.515808105469	-157.3154754638672	1458.572875976563	-791.4307861328127	-127.2240600585938	1470.538818359375	-830.6832275390627	-87.87918090820314	1452.966064453125	-789.6658935546877	-26.92824935913087	1450.634033203125	-799.7620239257815	-34.96145248413087	1371.118530273438	-810.7862548828127	229.5772399902344	1447.723022460938	-915.674499511719	245.9960327148438	1429.966186523438	-1028.762329101563	-316.2125244140626	968.2385864257815	-1089.613891601563	-318.8693237304688	973.3302001953127	-876.7923583984377	-481.2868041992189	1035.12451171875	-984.6768798828127	-489.1803588867189	1000.863647460938	-1008.392578125	-491.8108520507814	1010.399291992188	-952.6209716796877	-325.4201965332032	739.8452758789064	-1160.373046875	-257.8821716308594	689.2421264648439	-1160.51953125	-216.8583068847657	712.7548828125001	-1152.391479492188	-254.667709350586	630.1806640625001	-1144.35791015625	-174.7571411132813	501.3066711425782	-1123.335815429688	-169.313720703125	506.6756286621095	-1002.149353027344	-196.1106719970704	337.3232116699219	-1028.725463867188	-233.9942779541016	292.5916442871094	-1095.48388671875	-205.7052154541016	285.7332153320313	-1056.3212890625	-248.411117553711	221.9831085205079	-1019.514282226563	-335.5961608886719	127.5557632446289	-1059.026611328125	-315.7715454101563	138.6248321533203	-973.5140380859377	-407.5643310546876	111.6181716918946	-1007.561828613281	-201.651351928711	60.71077346801759	-984.7200927734377	-200.2097930908204	62.4529495239258	-1031.221557617188	-237.8613281250001	50.2147560119629	-1077.80322265625	-270.7152709960938	738.6100463867189	-787.4680786132815	-204.1851196289063	724.8569335937501	-793.997497558594	-182.7432098388672	746.7512817382814	-805.939147949219	-173.287094116211	647.2416381835939	-806.8364868164065	-116.1103591918946	556.2017211914064	-813.757751464844	-126.061882019043	542.8775634765626	-934.105407714844	-35.38296127319337	447.7091369628907	-841.2979736328127	-80.91615295410158	359.6400756835938	-791.623474121094	-40.63975143432618	365.0025634765626	-811.7344360351565	-17.71469497680664	318.8707885742188	-836.9189453125002	-35.14953613281251	152.4210662841797	-815.974792480469	-74.3979949951172	90.42151641845705	-856.996276855469	122.0642623901367	164.2398986816407	-891.156677246094	129.8832702636719	165.7806091308594	-854.8555908203127	107.0125732421875	134.7668762207032	-800.1248168945315	225.8609924316407	1390.273071289063	-1100.05712890625	-22.1026782989502	164.2632904052735	-900.3096923828127	
519	2.59	-193.5176086425782	1693.136962890625	-1055.750610351563	-328.3638610839844	1657.866455078125	-1129.444213867188	-368.8869323730469	1648.109741210938	-968.2692871093752	-396.6619262695314	1480.687133789063	-1049.752197265625	-456.5423889160157	1188.752685546875	-1014.353759765625	-263.2746887207032	1427.361206054688	-1045.374145507813	-299.1176757812501	1481.993530273438	-1193.1640625	-135.0555877685547	1445.528442382813	-1288.032958984375	-107.4271469116211	1456.759765625	-1246.718994140625	-65.88119506835939	1437.836669921875	-1288.62841796875	-7.513359546661379	1434.106567382813	-1276.50341796875	-22.13683891296387	1358.989990234375	-1259.15087890625	241.5178833007813	1437.018432617188	-1149.3505859375	250.2356414794922	1455.129150390625	-1048.482177734375	-310.2702941894532	1488.524536132813	-891.570983886719	-157.2146606445313	1457.051147460938	-791.3420410156252	-127.2973098754883	1469.2041015625	-830.6050415039065	-87.97446441650392	1451.70849609375	-789.5727539062502	-26.97791290283204	1449.617431640625	-799.6068115234377	-35.03905105590821	1370.299560546875	-810.819763183594	229.5455169677735	1446.649291992188	-915.3524169921877	245.5852355957032	1429.093017578125	-1028.732543945313	-317.5505371093751	967.251159667969	-1089.29150390625	-319.5696105957032	971.9267578125002	-876.887145996094	-481.8446655273439	1034.071166992188	-984.5255126953127	-490.6270446777345	1000.161193847656	-1008.222534179688	-492.5045471191407	1009.086730957031	-952.5458984375002	-325.6018981933594	739.2130126953126	-1160.335693359375	-257.8497314453126	688.9884033203126	-1160.564086914063	-217.0390014648438	712.1693725585939	-1152.480224609375	-254.5605773925782	629.7386474609376	-1144.474487304688	-174.8971252441407	501.4161071777345	-1123.431030273438	-168.7183074951172	506.4371032714845	-1002.333190917969	-195.8415069580079	337.1960449218751	-1028.821166992188	-233.7543334960938	292.4163818359376	-1095.476318359375	-205.4851379394532	285.5735473632813	-1056.421997070313	-247.9750366210938	221.9236450195313	-1019.798706054688	-335.4125976562501	127.4459686279297	-1059.15478515625	-315.6950073242188	138.575912475586	-973.5080566406252	-407.5560607910157	111.5762023925782	-1007.501220703125	-201.6324310302735	60.72196197509767	-984.7232055664065	-200.2075958251954	62.44944763183595	-1031.217163085938	-237.8831634521485	50.22890853881837	-1077.822509765625	-270.7281188964844	737.6736450195314	-787.0988769531252	-204.2204284667969	724.5358886718751	-794.0397949218752	-182.7068328857422	746.6638793945314	-806.3547973632815	-173.0171051025391	646.7279663085939	-806.7888793945315	-115.4304351806641	556.2156982421876	-813.8604125976565	-125.2472229003907	542.9348754882814	-934.1709594726565	-34.61758041381837	447.9139099121095	-841.2202758789065	-80.1018753051758	359.9292602539063	-791.7918090820315	-39.53325271606446	365.0658874511719	-811.868591308594	-16.37207794189453	318.9906311035157	-837.0796508789065	-33.64874649047852	152.538558959961	-816.2332153320315	-72.67127227783205	90.37484741210939	-857.5426025390627	123.8691864013672	164.8855590820313	-891.0976562500002	131.5950622558594	166.2275543212891	-854.5198974609377	108.4674148559571	135.049545288086	-800.3483886718752	225.9034881591797	1389.1220703125	-1100.04638671875	-20.55422973632813	164.4735870361328	-900.6901855468752	
520	2.595	-193.601791381836	1691.3359375	-1055.72265625	-329.7889404296876	1655.81591796875	-1129.34326171875	-368.7482604980469	1646.62353515625	-968.3586425781252	-396.5352478027345	1479.555908203125	-1049.817626953125	-457.0630187988282	1187.508666992188	-1014.321228027344	-263.0316772460938	1425.779052734375	-1045.453369140625	-298.9750061035157	1480.818481445313	-1193.154052734375	-135.1790924072266	1444.041381835938	-1287.968994140625	-107.4825286865235	1455.673950195313	-1246.831909179688	-65.9890594482422	1436.655883789063	-1288.62890625	-7.40407705307007	1432.970581054688	-1276.600708007813	-21.87474250793457	1356.612548828125	-1259.3017578125	241.6505889892579	1436.208984375	-1149.37158203125	250.6096649169922	1454.43505859375	-1048.6376953125	-310.2013244628907	1487.095092773438	-891.552673339844	-157.3286285400391	1456.114868164063	-791.398132324219	-127.2789993286133	1468.187255859375	-830.5924072265627	-87.9790725708008	1450.745727539063	-789.4439697265627	-27.03945541381837	1448.535278320313	-799.7449951171877	-35.0009994506836	1369.104125976563	-810.8189086914065	229.5794677734376	1445.447143554688	-915.2779541015627	246.0105743408204	1428.320068359375	-1028.593505859375	-317.8048400878907	965.7031860351565	-1089.244995117188	-320.2283020019532	970.9760742187502	-876.3856201171877	-482.7297973632814	1032.7587890625	-984.4243164062502	-491.2595214843751	998.8391723632815	-1008.19970703125	-493.4507751464845	1007.823669433594	-952.420349121094	-325.9181518554688	738.5070190429689	-1160.2197265625	-257.9112548828126	688.4475097656251	-1160.689086914063	-217.185775756836	711.7864990234376	-1152.58251953125	-254.3601684570313	628.9454956054689	-1144.605224609375	-174.2336120605469	501.0595092773439	-1123.521484375	-167.9226989746094	505.8474121093751	-1002.554748535156	-195.5291137695313	337.1414794921876	-1028.890380859375	-233.5210113525391	292.2096252441407	-1095.526611328125	-205.3992309570313	285.6333618164063	-1056.565307617188	-247.8519592285157	221.9488983154297	-1019.786376953125	-335.4050903320313	127.4407348632813	-1059.203125	-315.6636962890626	138.6227111816407	-973.582214355469	-407.5747375488282	111.6378479003907	-1007.514709472656	-201.6410369873047	60.72642135620119	-984.7147216796877	-200.2610626220704	62.470516204834	-1031.20703125	-237.9444580078126	50.22766494750978	-1077.803588867188	-270.8099060058594	736.9656372070314	-787.050476074219	-204.2685852050782	724.1535034179689	-794.066589355469	-182.7138824462891	746.2176513671876	-806.315124511719	-172.763656616211	646.4274902343751	-806.8067626953127	-114.8157730102539	556.2152709960939	-813.9409790039065	-124.6107635498047	542.8809204101564	-934.2565917968752	-33.77136993408204	448.4862060546876	-841.7902832031252	-79.24586486816408	359.8669738769532	-791.9409179687502	-38.92809295654298	365.0859375000001	-811.7969970703127	-15.34508037567139	319.2766723632813	-837.2314453125002	-32.12476348876954	152.5550384521485	-816.518981933594	-70.93492889404298	90.10458374023439	-858.0697021484377	125.3824462890625	165.4255828857422	-891.2732543945315	132.8274383544922	166.817367553711	-854.676208496094	109.6248626708985	135.5546112060547	-800.3806152343752	226.0504455566407	1388.190551757813	-1100.00244140625	-19.16923141479493	164.670654296875	-901.0070800781252	
